<svg width="370" height="12" viewBox="0 0 370 12" fill="none" xmlns="http://www.w3.org/2000/svg">
<path fill-rule="evenodd" clip-rule="evenodd" d="M233.825 0.0469343C175.672 0.607347 12.0352 4.20109 3.85735 5.09789C0.688188 5.44516 -0.145655 5.78953 0.019857 6.68126C0.135785 7.30764 1.01502 8.04713 1.97317 8.32335C3.17226 8.66989 3.31891 8.84968 2.44247 8.89898C0.563182 9.00556 1.27691 11.3103 3.3664 11.8837C4.32665 12.1476 10.6119 11.9468 17.3336 11.4379C30.0152 10.478 80.6254 7.51789 111.612 5.92438C123.302 5.32264 148.615 5.04642 185.289 5.11964C255.457 5.25957 295.959 6.43331 346.178 9.78056C371.181 11.4473 369.975 11.6046 369.995 6.67908C370.005 4.16629 369.865 4.00172 367.387 3.60443C356.273 1.82242 274.793 -0.347457 233.825 0.0469343ZM10.1754 8.0406C9.1195 8.20662 7.39106 8.20662 6.33444 8.0406C5.27851 7.87458 6.14239 7.73901 8.25493 7.73901C10.3675 7.73901 11.232 7.87458 10.1754 8.0406Z" fill="#EB9309"/>
</svg>
