<svg width="64" height="64" viewBox="0 0 64 64" fill="none" xmlns="http://www.w3.org/2000/svg">
<path d="M31.9998 6.66651C27.6691 6.66748 23.4109 7.77867 19.6318 9.89397C15.8528 12.0093 12.6791 15.058 10.4139 18.7492C8.14869 22.4403 6.86754 26.6505 6.69281 30.9777C6.51808 35.305 7.4556 39.6048 9.41584 43.4665L6.69851 55.7118C6.64739 55.9324 6.65325 56.1623 6.71555 56.3799C6.77784 56.5975 6.89452 56.7957 7.05459 56.9558C7.21465 57.1158 7.41283 57.2325 7.63046 57.2948C7.84809 57.3571 8.07799 57.363 8.29851 57.3118L20.5332 54.5838C23.9468 56.3187 27.7093 57.2572 31.5379 57.3288C35.3664 57.4003 39.1613 56.603 42.6374 54.9968C46.1134 53.3906 49.1801 51.0173 51.6069 48.0553C54.0338 45.0933 55.7576 41.6197 56.6487 37.8957C57.5399 34.1716 57.5753 30.294 56.7522 26.5543C55.929 22.8146 54.2689 19.3102 51.8965 16.3044C49.5241 13.2987 46.5012 10.8699 43.055 9.20053C39.6088 7.5312 35.829 6.66482 31.9998 6.66651ZM31.9998 54.6665C28.2795 54.6646 24.6167 53.7489 21.3332 51.9998C21.1395 51.8964 20.9234 51.8423 20.7038 51.8425C20.607 51.8425 20.5104 51.8532 20.4158 51.8745L9.74917 54.2425L12.1172 43.5758C12.1868 43.2684 12.1452 42.9462 11.9998 42.6665C9.6671 38.2926 8.83251 33.2746 9.6239 28.3811C10.4153 23.4876 12.789 18.9885 16.3815 15.5728C19.974 12.1572 24.5872 10.0134 29.5144 9.46985C34.4416 8.9263 39.4111 10.0129 43.6618 12.5633C47.9124 15.1137 51.2098 18.9872 53.0489 23.5906C54.8879 28.1939 55.1673 33.2731 53.8441 38.0503C52.5208 42.8275 49.6681 47.0393 45.7227 50.0404C41.7773 53.0415 36.9569 54.6665 31.9998 54.6665Z" fill="#EB9309"/>
<path d="M32.0263 22.7226C30.2663 21.3838 28.0633 20.7639 25.8634 20.9884C23.6635 21.213 21.6312 22.2652 20.178 23.932C18.7247 25.5987 17.9593 27.7555 18.0366 29.9655C18.1139 32.1754 19.0282 34.2734 20.5943 35.8346L31.037 46.2773C31.287 46.5272 31.6261 46.6676 31.9796 46.6676C32.3332 46.6676 32.6723 46.5272 32.9223 46.2773L42.701 36.4986C43.655 35.7319 44.4369 34.7729 44.9957 33.6839C45.5544 32.5949 45.8775 31.4005 45.944 30.1784C46.0104 28.9562 45.8186 27.7338 45.3811 26.5907C44.9437 25.4476 44.2703 24.4095 43.405 23.5439C41.9219 22.0656 39.9569 21.1694 37.8683 21.0186C35.7796 20.8678 33.7064 21.4726 32.0263 22.7226ZM41.5196 33.9866C41.3503 34.1523 41.1722 34.309 40.9863 34.4559C40.9454 34.4876 40.9063 34.5214 40.869 34.5573L31.981 43.4479L22.4796 33.9466C21.6334 33.1021 21.0566 32.0256 20.8224 30.8532C20.5881 29.6809 20.7069 28.4654 21.1637 27.3605C21.6205 26.2557 22.3947 25.3112 23.3885 24.6465C24.3822 23.9819 25.5508 23.6269 26.7463 23.6266C27.5518 23.6263 28.3494 23.7854 29.0932 24.0948C29.8369 24.4042 30.512 24.8577 31.0796 25.4293C31.3297 25.6792 31.6688 25.8196 32.0223 25.8196C32.3759 25.8196 32.7149 25.6792 32.965 25.4293C34.0997 24.2945 35.6388 23.657 37.2436 23.657C38.8485 23.657 40.3875 24.2945 41.5223 25.4293C42.6571 26.564 43.2946 28.1031 43.2946 29.7079C43.2946 31.3127 42.6571 32.8518 41.5223 33.9866H41.5196Z" fill="#EB9309"/>
</svg>
