<svg width="50" height="50" viewBox="0 0 50 50" fill="none" xmlns="http://www.w3.org/2000/svg">
<path d="M13.75 32.5H10.4167C9.49619 32.5 8.75 33.2462 8.75 34.1667V35.8333C8.75 36.7538 9.49619 37.5 10.4167 37.5H13.75C14.6705 37.5 15.4167 36.7538 15.4167 35.8333V34.1667C15.4167 33.2462 14.6705 32.5 13.75 32.5ZM10.4167 35.8333V34.1667H13.75V35.8333H10.4167Z" fill="#EB9309"/>
<path d="M31.2493 32.5H19.5827C18.6622 32.5 17.916 33.2462 17.916 34.1667V35.8333C17.916 36.7538 18.6622 37.5 19.5827 37.5H31.2493C32.1698 37.5 32.916 36.7538 32.916 35.8333V34.1667C32.916 33.2462 32.1698 32.5 31.2493 32.5ZM26.2493 34.1667H27.916V35.8333H26.2493V34.1667ZM24.5827 35.8333H22.916V34.1667H24.5827V35.8333ZM19.5827 34.1667H21.2493V35.8333H19.5827V34.1667ZM29.5827 35.8333V34.1667H31.2493V35.8333H29.5827Z" fill="#EB9309"/>
<path d="M35.416 34.1667V35.8333C35.416 36.7538 36.1622 37.5 37.0827 37.5H40.416C41.3365 37.5 42.0827 36.7538 42.0827 35.8333V34.1667C42.0827 33.2462 41.3365 32.5 40.416 32.5H37.0827C36.1622 32.5 35.416 33.2462 35.416 34.1667ZM40.416 35.8333H37.0827V34.1667H40.416V35.8333Z" fill="#EB9309"/>
<path d="M6.24967 6.66649V12.0398C5.24631 12.6972 4.62479 13.801 4.58301 14.9998V16.6665C4.58301 17.1267 4.9561 17.4998 5.41634 17.4998H8.74967C9.20991 17.4998 9.58301 17.1267 9.58301 16.6665V14.9998C9.54122 13.801 8.91971 12.6972 7.91634 12.0398V8.09816L14.583 10.0982V15.8332C14.5843 16.4625 14.8247 17.0678 15.2555 17.5265C14.5929 18.0394 14.0912 18.7314 13.8097 19.5207L11.853 24.9998H9.58301C8.20514 25.0067 7.08985 26.122 7.08301 27.4998C7.08606 28.423 7.59909 29.2688 8.41634 29.6982L6.97884 30.8482C5.98845 31.637 5.41294 32.8353 5.41634 34.1015V41.6665C5.42202 43.1818 6.4491 44.5027 7.91634 44.8815V47.4998C7.91634 48.8805 9.03563 49.9998 10.4163 49.9998H13.7497C15.1304 49.9998 16.2497 48.8805 16.2497 47.4998V44.9998H34.583V47.4998C34.583 48.8805 35.7023 49.9998 37.083 49.9998H40.4163C41.7971 49.9998 42.9163 48.8805 42.9163 47.4998V44.8815C44.3836 44.5027 45.4107 43.1818 45.4163 41.6665V34.1015C45.418 32.8365 44.8424 31.6398 43.853 30.8515L42.4163 29.6982C43.2336 29.2688 43.7466 28.423 43.7497 27.4998C43.7428 26.122 42.6275 25.0067 41.2497 24.9998H38.9797L37.023 19.5207C36.7415 18.7314 36.2397 18.0394 35.5772 17.5265C36.008 17.0678 36.2484 16.4625 36.2497 15.8332V10.0957L43.6938 7.86482C44.2239 7.70783 44.5879 7.22129 44.5889 6.66846C44.5898 6.11563 44.2275 5.62782 43.698 5.46899L25.8688 0.0606535C25.5613 -0.0190425 25.2382 -0.0161679 24.9322 0.0689868L7.13884 5.46815C6.60838 5.62461 6.24567 6.11345 6.24967 6.66649ZM7.91634 15.8332H6.24967V14.9998C6.28666 14.3996 6.59295 13.8483 7.08301 13.4998C7.57298 13.8484 7.87924 14.3997 7.91634 14.9998V15.8332ZM9.00467 26.9065C9.15667 26.751 9.36557 26.6643 9.58301 26.6665L11.2638 26.6482L10.6663 28.3332H9.58301C9.12277 28.3332 8.74967 27.9601 8.74967 27.4998C8.74895 27.2753 8.84126 27.0605 9.00467 26.9065ZM7.08301 41.6665V40.8332H18.7497V43.3332H8.74967C7.8292 43.3332 7.08301 42.587 7.08301 41.6665ZM14.583 47.4998C14.583 47.9601 14.2099 48.3332 13.7497 48.3332H10.4163C9.9561 48.3332 9.58301 47.9601 9.58301 47.4998V44.9998H14.583V47.4998ZM20.4163 43.3332V40.8332H30.4163V43.3332H20.4163ZM41.2497 47.4998C41.2497 47.9601 40.8766 48.3332 40.4163 48.3332H37.083C36.6228 48.3332 36.2497 47.9601 36.2497 47.4998V44.9998H41.2497V47.4998ZM43.7497 41.6665C43.7497 42.587 43.0035 43.3332 42.083 43.3332H32.083V40.8332H43.7497V41.6665ZM43.7497 34.1015L43.7497 39.1665H7.083L7.08301 34.1015C7.08147 33.3418 7.42704 32.623 8.02134 32.1498L10.4805 30.1823C10.6279 30.0645 10.8109 30.0001 10.9997 29.9998H39.833C40.0223 29.9997 40.206 30.0641 40.3538 30.1823L42.813 32.1498C43.407 32.6231 43.752 33.342 43.7497 34.1015ZM41.2497 26.6665C41.4742 26.6658 41.689 26.7581 41.843 26.9215C41.9985 27.0735 42.0852 27.2824 42.083 27.4998C42.083 27.9601 41.7099 28.3332 41.2497 28.3332H40.1663L39.5713 26.6665L41.2497 26.6665ZM37.5647 25.994C37.5706 26.1081 37.6019 26.2194 37.6563 26.3198C37.6702 26.3393 37.6852 26.358 37.7013 26.3757L38.4005 28.3332H12.4322L15.3797 20.0832C15.7004 19.0621 16.6356 18.3585 17.7055 18.3332H33.1272C34.1971 18.3585 35.1322 19.0621 35.453 20.0832L37.5647 25.994ZM17.7055 16.6665H17.083C16.6228 16.6665 16.2497 16.2934 16.2497 15.8332V9.56566C17.0247 9.01566 19.683 7.49982 25.4163 7.49982C31.1497 7.49982 33.8163 9.02149 34.583 9.56566V15.8332C34.583 16.2934 34.2099 16.6665 33.7497 16.6665H17.7055ZM25.4163 1.66649L41.8955 6.66649L35.8813 8.46815C35.2838 7.95399 32.388 5.83315 25.4163 5.83315C18.4447 5.83315 15.5488 7.95399 14.9513 8.46566L8.93717 6.66649L25.4163 1.66649Z" fill="#EB9309"/>
</svg>
