<svg width="60" height="59" viewBox="0 0 60 59" fill="none" xmlns="http://www.w3.org/2000/svg">
<path d="M1.76729 58.7209H58.0816C58.3876 58.7209 58.6811 58.5993 58.8975 58.3829C59.1139 58.1665 59.2354 57.873 59.2354 57.567V25.1341C59.2297 24.9416 59.1818 24.7527 59.0952 24.5807C59.0087 24.4087 58.8855 24.2578 58.7343 24.1385L55.675 21.5011V6.40878C55.6698 6.1062 55.5459 5.81778 55.3301 5.60565C55.1143 5.39352 54.8238 5.27467 54.5211 5.27472H36.5871L32.7761 1.97801C31.9731 1.31907 30.9665 0.958923 29.9277 0.958923C28.889 0.958923 27.8824 1.31907 27.0794 1.97801L23.2618 5.27472H5.32773C5.02511 5.27467 4.73458 5.39352 4.51876 5.60565C4.30293 5.81778 4.17908 6.1062 4.17389 6.40878V21.5341L1.14751 24.1121C0.98027 24.2243 0.843782 24.3766 0.750497 24.5551C0.657211 24.7337 0.610096 24.9327 0.613448 25.1341V57.567C0.613448 57.873 0.735014 58.1665 0.951402 58.3829C1.16779 58.5993 1.46128 58.7209 1.76729 58.7209ZM18.9431 41.2681L2.94092 54.9824V27.6264L18.9431 41.2681ZM56.9014 27.5934V55.0615L40.8794 41.2747L56.9014 27.5934ZM38.6904 42.4483L54.9365 56.4132H4.82664L21.0992 42.4483H38.6904ZM56.2882 25.0549L55.675 25.5758V24.567L56.2882 25.0549ZM28.5761 3.75823C28.9635 3.4599 29.4388 3.29812 29.9277 3.29812C30.4167 3.29812 30.892 3.4599 31.2794 3.75823L33.0332 5.27472H26.8222L28.5761 3.75823ZM6.48158 7.56263H53.3673V27.5472L38.6376 40.1407H21.1717L6.44202 27.5736C6.46854 27.4792 6.48186 27.3816 6.48158 27.2835V7.56263ZM4.17389 25.6418L3.51455 25.1011L4.17389 24.5604V25.6418Z" fill="black" fill-opacity="0.1"/>
<path d="M26.605 33.1513C29.5198 33.9525 32.6275 33.6521 35.3347 32.3074C35.6075 32.1683 35.8139 31.9266 35.9085 31.6355C36.0031 31.3443 35.9781 31.0274 35.8391 30.7546C35.7001 30.4818 35.4584 30.2754 35.1672 30.1808C34.876 30.0862 34.5592 30.1112 34.2864 30.2502C32.1246 31.3157 29.6542 31.5774 27.3171 30.9887C20.9941 28.5689 22.7017 21.837 22.7545 21.5535C23.2622 19.6414 25.7611 14.7887 31.26 15.2041C37.438 15.6854 37.4182 21.3887 37.3523 22.5293C37.2138 24.903 35.849 26.703 34.7545 26.703H34.7149C34.6262 26.7085 34.5372 26.6949 34.4542 26.6631C34.3711 26.6312 34.2959 26.5819 34.2336 26.5184C33.9718 26.0682 33.8609 25.546 33.9171 25.0282L34.6952 18.8568C34.6952 18.8041 34.6952 18.7579 34.6952 18.7118C34.6982 18.426 34.5951 18.1494 34.4058 17.9353C34.2165 17.7212 33.9546 17.585 33.6706 17.553C33.3867 17.521 33.101 17.5955 32.8688 17.7621C32.6366 17.9286 32.4745 18.1754 32.4138 18.4546C31.7371 17.9082 30.9027 17.5938 30.0336 17.5579H29.9347C27.5875 17.5579 24.8776 19.4238 24.3831 22.9513C24.137 24.1973 24.3864 25.49 25.0783 26.555C25.7702 27.62 26.8501 28.3732 28.0886 28.6546C28.8064 28.7757 29.5417 28.745 30.2469 28.5644C30.9522 28.3838 31.6117 28.0574 32.1831 27.6063C32.2746 27.7531 32.3782 27.8921 32.493 28.0216C32.7583 28.3271 33.0852 28.5731 33.4522 28.7435C33.8192 28.9139 34.218 29.005 34.6226 29.0107C37.1743 29.1293 39.449 26.2612 39.66 22.6612C39.9171 18.1381 37.4776 13.3711 31.4314 12.903C25.1281 12.4151 21.449 17.459 20.5259 20.9667C18.6534 28.0612 23.427 31.9513 26.605 33.1513ZM31.6424 24.5799C31.4054 25.1828 30.9717 25.6879 30.4116 26.0134C29.8515 26.339 29.1979 26.4658 28.5567 26.3733C27.8948 26.2064 27.3252 25.7856 26.9711 25.202C26.617 24.6184 26.5068 23.9188 26.6644 23.2546C27.0204 20.7557 28.8336 19.8458 29.9611 19.8458H30.0072C31.0292 19.8458 31.7875 21.0656 31.8072 21.092C31.875 21.2109 31.9645 21.316 32.071 21.4019L31.6424 24.5799Z" fill="black" fill-opacity="0.1"/>
</svg>
