<svg width="36" height="29" viewBox="0 0 36 29" fill="none" xmlns="http://www.w3.org/2000/svg">
<path d="M34.8041 7.66184L20.4536 0.475562C19.2165 -0.158521 17.1134 -0.158521 15.8763 0.475562L1.19588 7.66184C0.164948 8.1691 0 8.88773 0 9.26818C0 9.64863 0.164948 10.325 1.19588 10.8745L2.39175 11.4663V18.2299C1.64948 18.5258 1.1134 19.2867 1.1134 20.1321C1.1134 20.9776 1.64948 21.7385 2.35052 22.0344L0.494845 28.0793H5.69072L3.83505 22.0344C4.57732 21.7385 5.07216 20.9776 5.07216 20.1321C5.07216 19.2444 4.53608 18.5258 3.79381 18.2299V12.185L5.97938 13.284V22.0767C5.97938 22.2035 6.02062 22.3303 6.10309 22.4571C6.30928 22.7107 10.1443 28.0793 17.9794 28.0793C25.8144 28.0793 29.6495 22.6685 29.8144 22.4571C29.8969 22.3303 29.9381 22.2035 29.9381 22.0767V13.3263L34.8041 10.8745C35.8351 10.3673 36 9.64863 36 9.26818C35.9588 8.88773 35.8351 8.1691 34.8041 7.66184ZM28.6186 21.8653C27.9588 22.7107 24.4124 26.7689 17.9794 26.7689C11.5464 26.7689 8 22.7107 7.34021 21.8653V13.8759L15.8763 18.0608C16.4948 18.3567 17.3196 18.5258 18.1443 18.5258C19.0103 18.5258 19.8351 18.3567 20.4536 18.0185L28.6186 13.9181V21.8653ZM34.2268 9.6909L29.2784 12.185C29.0722 12.185 28.9072 12.2695 28.8247 12.4386L19.8763 16.8772C19.0103 17.3422 17.3196 17.3422 16.4124 16.8772L5.40206 11.4663L18.0619 9.94454C18.433 9.90227 18.6804 9.56409 18.6392 9.22591C18.5979 8.84546 18.268 8.59183 17.9381 8.6341L3.25773 10.4095L1.7732 9.6909C1.40206 9.52182 1.31959 9.31046 1.31959 9.31046C1.31959 9.26818 1.40206 9.09909 1.7732 8.93L16.4536 1.70146C16.9072 1.4901 17.5258 1.36328 18.1443 1.36328C18.8041 1.36328 19.4639 1.4901 19.8763 1.70146L34.2268 8.88773C34.5979 9.05682 34.6804 9.22591 34.6804 9.31046C34.6804 9.31046 34.5567 9.52182 34.2268 9.6909Z" fill="#EB9309"/>
</svg>
