<svg width="36" height="36" viewBox="0 0 36 36" fill="none" xmlns="http://www.w3.org/2000/svg">
<g clip-path="url(#clip0_9_388)">
<path d="M35.3985 22.8008H0.600952C0.269781 22.8008 0.000976562 23.069 0.000976562 23.4008C0.000976562 30.3477 5.65262 35.9999 12.6001 35.9999H23.3994C30.3463 35.9999 35.9985 30.3477 35.9985 23.4008C35.9985 23.069 35.7304 22.8008 35.3985 22.8008ZM23.3994 34.7999H12.6001C6.51591 34.7999 1.52964 30.0086 1.21647 24.0007H34.783C34.4699 30.0086 29.4836 34.7999 23.3994 34.7999Z" fill="#1245F8"/>
<path d="M30.602 8.40541C30.602 8.3616 30.6014 8.3178 30.5972 8.25121C30.5049 7.25651 29.8209 6.43934 28.918 6.13277L29.5971 5.45363C30.7749 4.29994 30.893 2.45445 29.8623 1.15135C28.7584 -0.190137 26.7689 -0.380964 25.4279 0.722377C25.3517 0.785377 25.278 0.851963 25.2041 0.925791L24.4662 1.67455C24.1566 0.776377 23.3377 0.0972301 22.3286 0.00364433C20.9997 -0.068918 19.8747 0.950963 19.8034 2.27206C19.801 2.31587 19.8004 2.35967 19.8004 2.40284V3.3226C19.4476 3.11799 19.039 3.00043 18.6029 2.99979C18.5597 2.99979 18.5153 3.00099 18.4487 3.00458C17.166 3.12397 16.1791 4.22611 16.2006 5.50397V6.31994C15.8406 6.11175 15.4303 6.00016 15.0032 5.99953C14.96 5.99953 14.9162 6.00073 14.8496 6.00431C13.5663 6.1237 12.5793 7.22585 12.6009 8.50378V17.4012C12.6009 17.733 12.8697 18.0012 13.2009 18.0012H23.4002C24.7237 18.0012 25.8 16.9248 25.7994 15.6025C25.7994 15.1657 25.6824 14.756 25.4772 14.4026H26.2878C27.5765 14.438 28.6786 13.4367 28.7992 12.1306C28.825 11.6422 28.7026 11.1802 28.4711 10.7879C29.0098 10.7279 29.5084 10.4897 29.8971 10.1021C30.3506 9.64973 30.6014 9.04736 30.602 8.40541ZM29.0499 9.25253C28.8231 9.4781 28.5225 9.60234 28.2016 9.60234C28.2009 9.60234 28.2004 9.60234 28.1997 9.60234H26.3999C26.0681 9.60234 25.7999 9.87114 25.7999 10.2023C25.7999 10.5335 26.0681 10.8023 26.3999 10.8023L26.4659 10.8041C27.127 10.8395 27.6358 11.4058 27.6022 12.043C27.541 12.7042 26.9801 13.216 26.2979 13.2021H23.4001C23.0683 13.2021 22.8002 13.4709 22.8002 13.8021C22.8002 14.1333 23.0683 14.4021 23.4001 14.4021C24.0619 14.4021 24.6001 14.9402 24.6001 15.602C24.6001 16.2638 24.0619 16.802 23.4001 16.802H13.8007V8.49358C13.7894 7.82941 14.2993 7.26129 14.9371 7.20124L15.0025 7.19941C15.663 7.19997 16.1999 7.73758 16.2006 8.39753V8.40175C16.2006 8.73292 16.4687 9.00173 16.7999 9.00173C16.8005 9.00173 16.8005 9.00173 16.8005 9.00173C17.1317 9.00173 17.3999 8.73356 17.4005 8.40239V8.40182V5.49377C17.3891 4.8296 17.8991 4.26148 18.5368 4.20143L18.6017 4.1996C19.2628 4.2008 19.7998 4.73834 19.8004 5.39892V5.40251C19.8004 5.73368 20.0686 6.00248 20.3998 6.00248C20.4004 6.00248 20.4004 6.00248 20.4004 6.00248C20.7316 6.00248 20.9997 5.73431 21.0004 5.40314V5.40251V2.40277L21.0022 2.33619C21.037 1.6756 21.5902 1.16689 22.2405 1.19987C22.9029 1.26167 23.4122 1.8298 23.3996 2.50536V3.00331C23.3996 3.24631 23.5467 3.4659 23.7722 3.55829C23.996 3.65068 24.2564 3.59787 24.4268 3.42392L26.0544 1.77221C26.0988 1.72841 26.1444 1.68699 26.1918 1.64804C27.0221 0.965307 28.2527 1.08406 28.9294 1.90482C29.5702 2.71594 29.4964 3.87265 28.7537 4.60046L27.1758 6.17834C27.0042 6.3499 26.9526 6.60787 27.0456 6.83231C27.1379 7.05612 27.3575 7.20251 27.5999 7.20251H28.0978C28.1104 7.20251 28.1194 7.20251 28.1296 7.20251C28.7848 7.20251 29.3415 7.7077 29.4003 8.33882L29.4021 8.40485C29.4014 8.72519 29.2767 9.02634 29.0499 9.25253Z" fill="#1245F8"/>
<path d="M25.9753 3.77667L9.17676 20.5752L10.0252 21.4236L26.8237 4.62511L25.9753 3.77667Z" fill="#1245F8"/>
<path d="M23.3982 4.80566H22.1982V7.80547H23.3982V4.80566Z" fill="#1245F8"/>
<path d="M19.7986 7.80566H18.5986V11.4054H19.7986V7.80566Z" fill="#1245F8"/>
<path d="M16.199 10.7993H14.999V14.999H16.199V10.7993Z" fill="#1245F8"/>
<path d="M25.7986 7.20557H22.7988V8.40545H25.7986V7.20557Z" fill="#1245F8"/>
<path d="M22.798 10.7993H19.1982V11.9992H22.798V10.7993Z" fill="#1245F8"/>
<path d="M19.7983 14.3989H15.5986V15.5989H19.7983V14.3989Z" fill="#1245F8"/>
<path d="M11.1995 2.77565C11.1989 2.77445 11.1976 2.77326 11.1971 2.77206C10.3505 1.50433 8.62984 1.15994 7.36274 2.0065C7.32316 2.03231 7.28413 2.05987 7.23977 2.09292L7.02377 2.25731L6.8162 2.10789C5.71828 1.08379 3.99218 1.12521 2.94706 2.20992C2.43532 2.74028 2.16054 3.43863 2.17432 4.17599C2.1881 4.91336 2.48749 5.60087 3.0173 6.11204C3.17149 6.26082 3.34305 6.3916 3.52784 6.5008L4.03303 6.8956V7.2028C4.03303 8.8569 5.37874 10.2026 7.03284 10.2026C8.68694 10.2026 10.0326 8.85626 10.032 7.20224V6.89504L10.563 6.48048C11.7118 5.60868 11.9908 3.98101 11.1995 2.77565ZM9.83099 5.53007L9.06304 6.13004C8.91784 6.24346 8.83262 6.41804 8.83262 6.60282V7.2028C8.83262 8.19512 8.02508 9.00265 7.03277 9.00265C6.04045 9.00265 5.23291 8.19512 5.23291 7.2028V6.60282C5.23291 6.41804 5.14832 6.24346 5.0025 6.13004L4.23454 5.53007C4.21176 5.51207 4.18715 5.49589 4.16198 5.48148C4.0492 5.41729 3.94479 5.33931 3.8512 5.24868C3.55125 4.95948 3.38201 4.57072 3.3742 4.15433C3.3664 3.73795 3.52179 3.34321 3.81098 3.04319C4.11635 2.72643 4.52494 2.56682 4.93408 2.56682C5.32403 2.56682 5.71462 2.71138 6.01703 3.0036C6.03742 3.0228 6.05901 3.04143 6.08242 3.05817L6.6824 3.49016C6.89601 3.64436 7.18577 3.64077 7.39579 3.48116L8.02818 3.00543C8.37615 2.77263 8.79311 2.69106 9.20352 2.77206C9.61267 2.85363 9.96606 3.08945 10.1982 3.43623C10.6434 4.11658 10.485 5.03331 9.83099 5.53007Z" fill="#1245F8"/>
<path d="M32.3994 3.60303V4.80298C33.0612 4.80298 33.5994 5.34115 33.5994 6.00286C33.5994 6.66457 33.0612 7.20281 32.3994 7.20281V8.40269C33.7229 8.40269 34.7992 7.32635 34.7992 6.00286C34.7992 4.67937 33.7229 3.60303 32.3994 3.60303Z" fill="#1245F8"/>
<path d="M23.3998 19.2012C22.0763 19.2012 21 20.2775 21 21.601H22.2C22.2 20.9392 22.7381 20.4011 23.3998 20.4011C24.0616 20.4011 24.5998 20.9392 24.5998 21.601H25.7997C25.7997 20.2775 24.7233 19.2012 23.3998 19.2012Z" fill="#1245F8"/>
<path d="M7.20047 13.8013H7.12489C6.85728 12.7676 5.91713 12.0015 4.80064 12.0015C3.68415 12.0015 2.74337 12.7676 2.47639 13.8013H2.40081C1.07732 13.8013 0.000976562 14.8777 0.000976562 16.2012C0.000976562 17.5246 1.07732 18.601 2.40081 18.601H7.20047C8.52396 18.601 9.6003 17.5246 9.6003 16.2012C9.6003 14.8777 8.52396 13.8013 7.20047 13.8013ZM7.20047 17.4017H2.40074C1.73896 17.4017 1.20079 16.8635 1.20079 16.2018C1.20079 15.54 1.73896 15.0018 2.40074 15.0018H3.00071C3.33188 15.0018 3.60069 14.733 3.60069 14.4019C3.60069 13.7401 4.13886 13.202 4.80064 13.202C5.46242 13.202 6.00059 13.7401 6.00059 14.4019C6.00059 14.733 6.26939 15.0018 6.60057 15.0018H7.20054C7.86232 15.0018 8.40049 15.54 8.40049 16.2018C8.40035 16.8636 7.86218 17.4017 7.20047 17.4017Z" fill="#1245F8"/>
<path d="M6.00078 17.4014H3.60095C3.26978 17.4014 3.00098 17.6702 3.00098 18.0013V20.4012C3.00098 20.733 3.26978 21.0011 3.60095 21.0011H6.00078C6.33195 21.0011 6.60076 20.733 6.60076 20.4012V18.0013C6.60076 17.6702 6.33195 17.4014 6.00078 17.4014ZM5.40081 19.8012H4.20093V18.6013H5.40088V19.8012H5.40081Z" fill="#1245F8"/>
<path d="M31.7989 15.6016C30.8066 15.6016 29.999 16.4091 29.999 17.4014C29.999 18.3937 30.8066 19.2013 31.7989 19.2013C32.7912 19.2013 33.5987 18.3937 33.5987 17.4014C33.5987 16.4091 32.7912 15.6016 31.7989 15.6016ZM31.7989 18.002C31.4677 18.002 31.1989 17.7326 31.1989 17.402C31.1989 17.0714 31.4677 16.802 31.7989 16.802C32.13 16.802 32.3989 17.0708 32.3989 17.402C32.3989 17.7332 32.13 18.002 31.7989 18.002Z" fill="#1245F8"/>
<path d="M31.7993 13.2017C29.4841 13.2017 27.5996 15.0855 27.5996 17.4013C27.5996 19.7172 29.4841 21.601 31.7993 21.601C34.1145 21.601 35.999 19.7172 35.999 17.4013C35.999 15.0855 34.1145 13.2017 31.7993 13.2017ZM31.7993 20.4017C30.1452 20.4017 28.7995 19.0554 28.7995 17.4019C28.7995 15.7478 30.1452 14.4021 31.7993 14.4021C33.4534 14.4021 34.7991 15.7478 34.7991 17.4019C34.7991 19.056 33.4534 20.4017 31.7993 20.4017Z" fill="#1245F8"/>
</g>
<defs>
<clipPath id="clip0_9_388">
<rect width="36" height="36" fill="white"/>
</clipPath>
</defs>
</svg>
