<svg width="28" height="40" viewBox="0 0 28 40" fill="none" xmlns="http://www.w3.org/2000/svg">
<path d="M14 39.4666C10.2883 39.4623 6.72978 37.9489 4.10519 35.2584C1.48059 32.5679 0.00423802 28.9201 0 25.1152C0 12.6422 12.8695 0.729035 13.4177 0.227991C13.5778 0.0811695 13.7851 0 14 0C14.2149 0 14.4222 0.0811695 14.5823 0.227991C15.1305 0.729035 28 12.6422 28 25.1152C27.9958 28.9201 26.5194 32.5679 23.8948 35.2584C21.2702 37.9489 17.7117 39.4623 14 39.4666ZM14 2.12794C11.4916 4.60813 1.75 14.9004 1.75 25.1152C1.75 28.4457 3.04062 31.6397 5.33794 33.9947C7.63526 36.3497 10.7511 37.6727 14 37.6727C17.2489 37.6727 20.3647 36.3497 22.6621 33.9947C24.9594 31.6397 26.25 28.4457 26.25 25.1152C26.25 14.9004 16.5084 4.60813 14 2.12794Z" fill="#EC4A4E"/>
<path d="M9.1854 34.5578C9.03176 34.558 8.88081 34.5165 8.7479 34.4375C7.15466 33.4893 5.83169 32.1296 4.91089 30.4939C3.99009 28.8583 3.50363 27.0037 3.5 25.1152C3.5 24.8773 3.59219 24.6492 3.75628 24.481C3.92038 24.3128 4.14294 24.2183 4.375 24.2183C4.60706 24.2183 4.82962 24.3128 4.99372 24.481C5.15781 24.6492 5.25 24.8773 5.25 25.1152C5.25309 26.6893 5.65868 28.2349 6.42634 29.5981C7.19399 30.9614 8.29688 32.0944 9.625 32.8844C9.79179 32.9832 9.92209 33.1358 9.99568 33.3183C10.0693 33.5008 10.082 33.7032 10.032 33.8939C9.98192 34.0846 9.87186 34.2531 9.71887 34.3731C9.56587 34.4932 9.37851 34.5581 9.18584 34.5578H9.1854Z" fill="#EC4A4E"/>
</svg>
