<svg width="11" height="15" viewBox="0 0 11 15" fill="none" xmlns="http://www.w3.org/2000/svg">
<path d="M5.13435 14.8043C5.21585 14.9266 5.35308 15 5.5 15C5.64692 15 5.78415 14.9266 5.86565 14.8043C6.90566 13.2443 8.43751 11.3177 9.50497 9.35833C10.3585 7.79165 10.7734 6.45545 10.7734 5.27344C10.7734 2.36566 8.40777 0 5.5 0C2.59223 0 0.226562 2.36566 0.226562 5.27344C0.226562 6.45545 0.641494 7.79165 1.49503 9.35833C2.5617 11.3162 4.09647 13.2475 5.13435 14.8043ZM5.5 0.878906C7.92314 0.878906 9.89453 2.85029 9.89453 5.27344C9.89453 6.3048 9.51464 7.50346 8.73317 8.93786C7.81305 10.6268 6.50002 12.34 5.5 13.7803C4.50013 12.3403 3.18701 10.6269 2.26683 8.93786C1.48536 7.50346 1.10547 6.3048 1.10547 5.27344C1.10547 2.85029 3.07686 0.878906 5.5 0.878906Z" fill="#616161"/>
<path d="M5.5 7.91016C6.95389 7.91016 8.13672 6.72732 8.13672 5.27344C8.13672 3.81955 6.95389 2.63672 5.5 2.63672C4.04611 2.63672 2.86328 3.81955 2.86328 5.27344C2.86328 6.72732 4.04611 7.91016 5.5 7.91016ZM5.5 3.51562C6.46926 3.51562 7.25781 4.30418 7.25781 5.27344C7.25781 6.2427 6.46926 7.03125 5.5 7.03125C4.53074 7.03125 3.74219 6.2427 3.74219 5.27344C3.74219 4.30418 4.53074 3.51562 5.5 3.51562Z" fill="#616161"/>
</svg>
